<svg xmlns="http://www.w3.org/2000/svg" xmlns:xlink="http://www.w3.org/1999/xlink" viewBox="0 0 100 125" version="1.1" x="0px" y="0px"><title>tool-9 copy</title><desc>Created with Sketch.</desc><g stroke="none" stroke-width="1" fill="none" fill-rule="evenodd"><path d="M38.0451536,53.2107309 C38.9176798,54.1827307 40.4154691,54.2651518 41.3893637,53.3907308 C43.5256792,51.4742048 46.292942,50.5012575 49.1483101,50.659468 C52.0150466,50.8148364 54.6487304,52.076731 56.5671512,54.2139939 C57.0342038,54.7340991 57.6812563,55.0003096 58.3302036,55.0003096 C58.8938878,55.0003096 59.4594666,54.8004149 59.9113613,54.3939939 C60.8843086,53.5205203 60.9657822,52.0236784 60.0913613,51.0497838 C57.3297827,47.9717842 53.5346253,46.152837 49.4040995,45.9283108 C45.2659948,45.7142055 41.3041006,47.1039948 38.2251536,49.8665208 C37.2522064,50.7399943 37.1707327,52.2377836 38.0451536,53.2107309 M75.9588329,55.2030464 C77.7190432,55.2030464 79.2575693,53.7753624 79.2575693,52.0151521 C79.2575693,48.0617842 75.9588329,45.2253635 75.9588329,45.2253635 C75.9588329,45.2253635 72.6600965,47.9973631 72.6600965,52.0151521 C72.6600965,53.7753624 74.1976753,55.2030464 75.9588329,55.2030464 M30.7826282,64.9448346 C30.7826282,60.9914667 27.4838918,58.155046 27.4838918,58.155046 C27.4838918,58.155046 24.1851554,60.9270457 24.1851554,64.9448346 C24.1851554,66.7059923 25.7236815,68.1327289 27.4838918,68.1327289 C29.2450495,68.1327289 30.7826282,66.7059923 30.7826282,64.9448346 M17.1708405,71.1169391 C17.1708405,71.1169391 13.9393673,73.833044 13.9393673,77.7684119 C13.9393673,79.4935696 15.4466302,80.8918852 17.1708405,80.8918852 C18.8959982,80.8918852 20.4032612,79.4935696 20.4032612,77.7684119 C20.4032612,73.8955703 17.1708405,71.1169391 17.1708405,71.1169391 M84.6916739,71.1169391 C84.6916739,71.1169391 82.1442006,73.2579914 82.1442006,76.3606226 C82.1442006,77.7200961 83.331253,78.8228328 84.6916739,78.8228328 C86.0511474,78.8228328 87.2391473,77.7200961 87.2391473,76.3606226 C87.2391473,73.3072546 84.6916739,71.1169391 84.6916739,71.1169391 M74.0622016,78.1217803 C74.0622016,78.1217803 68.9672549,82.403885 68.9672549,88.6091473 C68.9672549,91.3280944 71.3432546,93.5326204 74.0622016,93.5326204 C76.782096,93.5326204 79.1571483,91.3280944 79.1571483,88.6091473 C79.1571483,82.5024113 74.0622016,78.1217803 74.0622016,78.1217803 M55.1119935,71.1169391 C55.1119935,71.1169391 50.0170468,75.3990438 50.0170468,81.6043061 C50.0170468,84.3232532 52.3920991,86.5277792 55.1119935,86.5277792 C57.8309405,86.5277792 60.2069402,84.3232532 60.2069402,81.6043061 C60.2069402,75.4975701 55.1119935,71.1169391 55.1119935,71.1169391 M40.2468375,86.3638845 C40.2468375,79.1496749 34.2272594,73.9742019 34.2272594,73.9742019 C34.2272594,73.9742019 28.2076812,79.0322012 28.2076812,86.3638845 C28.2076812,89.5764104 31.0147335,92.1807258 34.2272594,92.1807258 C37.4407326,92.1807258 40.2468375,89.5764104 40.2468375,86.3638845 M59.8535719,38.5198907 C62.3044136,38.5198907 64.7562028,37.5876803 66.6225183,35.7204173 C67.5480972,34.7948385 67.5480972,33.2961019 66.6225183,32.3714704 C65.6969395,31.4458916 64.1982029,31.4458916 63.2735714,32.3714704 C61.3864138,34.2557859 58.3188352,34.2567333 56.4316776,32.3714704 C55.5070461,31.4458916 54.0083095,31.4458916 53.0827306,32.3714704 C52.1571518,33.2961019 52.1571518,34.7948385 53.0827306,35.7204173 C54.9490462,37.5876803 57.4008353,38.5198907 59.8535719,38.5198907 M37.0958906,38.5255749 C39.6528376,38.5255749 42.0572584,37.5289434 43.8657844,35.7204173 C44.7904159,34.7948385 44.7904159,33.2951545 43.8657844,32.3714704 C42.9402056,31.4458916 41.4395742,31.4458916 40.5158901,32.3714704 C39.6026271,33.2856808 38.3871536,33.7887334 37.0958906,33.7887334 C35.8036802,33.7887334 34.5891541,33.2856808 33.6749437,32.3714704 C32.7493648,31.4458916 31.2506282,31.4458916 30.3259967,32.3714704 C29.4004179,33.2961019 29.4004179,34.7948385 30.3259967,35.7204173 C32.1345228,37.5289434 34.5389435,38.5255749 37.0958906,38.5255749 M94.9876726,50.8792575 C94.6409358,60.0478879 86.8175684,67.168308 77.6423064,67.168308 L36.7690485,67.168308 C35.5583118,67.168308 34.5702067,66.1783081 34.5721014,64.9685188 L34.5721014,64.9448346 C34.5721014,64.8311504 34.5702067,64.7174662 34.5673646,64.6056768 C34.5275751,63.4148348 35.4787329,62.4314665 36.6705222,62.4314665 L78.0572537,62.4314665 C85.316937,62.4314665 91.1167257,56.0613621 90.1589364,48.6178894 C89.5346206,43.7626268 85.9620948,39.65768 81.2243059,38.4279959 C78.9591483,37.8406276 76.6276749,37.8927328 74.4629384,38.5615749 L73.6415701,38.8145222 C72.2157808,39.2541011 70.8648336,37.9486276 71.2551493,36.5086278 L71.4796756,35.6796805 C71.9183071,34.0558912 72.1409387,32.3828388 72.1409387,30.7078917 C72.1409387,20.2479983 63.6307293,11.7368415 53.1708359,11.7368415 C45.9575737,11.7368415 39.4605219,15.7470515 36.2148381,22.2005244 L35.9628381,22.7035769 C35.4342066,23.753261 34.0870489,24.0744188 33.1415753,23.3743137 L32.6896806,23.0398927 C31.4107334,22.0934717 29.9025231,21.5894718 28.3261022,21.5818929 C24.9278922,21.5657876 22.0355767,23.7343136 21.1403137,27.0131553 C20.7642085,28.3896814 20.785998,29.8164181 21.192419,31.1531548 L21.3259979,31.593681 C21.6234715,32.5751546 21.0853663,33.6163123 20.1124191,33.9412597 L20.0404191,33.9649439 C14.3808409,35.8530489 10.1963151,40.8788377 9.77473622,46.8302054 C9.33042049,53.0818888 12.8669464,58.5662039 18.0992615,61.0322035 C19.523156,61.7038877 20.4373664,63.0993612 20.3994717,64.6738873 C20.3966296,64.7638873 20.3956822,64.8538873 20.3956822,64.9448346 L20.3956822,64.9448346 C20.397577,65.8855713 19.4862087,66.5762028 18.5881035,66.2986239 C10.7277887,63.8638874 5,56.5340989 5,47.8846263 C5,40.2857852 9.4289468,33.4884176 16.2130512,30.3687338 C16.1609459,29.9158918 16.135367,29.4583129 16.135367,28.9997866 C16.135367,22.2981033 21.5884189,16.8450514 28.2901023,16.8450514 C30.0105231,16.8450514 31.6807334,17.2031566 33.223049,17.8937881 C37.5629432,11.1172626 44.9988369,7 53.1708359,7 C66.2426237,7 76.8777802,17.6351565 76.8777802,30.7078917 C76.8777802,31.5861021 76.828517,32.4633651 76.7318855,33.3358913 C77.1724117,33.3017861 77.6138853,33.2847334 78.0572537,33.2847334 C87.6161998,33.2847334 95.351462,41.2416798 94.9876726,50.8792575" fill="#000000"/></g><text x="0" y="115" fill="#000000" font-size="5px" font-weight="bold" font-family="'Helvetica Neue', Helvetica, Arial-Unicode, Arial, Sans-serif">Created by Icon Island</text><text x="0" y="120" fill="#000000" font-size="5px" font-weight="bold" font-family="'Helvetica Neue', Helvetica, Arial-Unicode, Arial, Sans-serif">from the Noun Project</text></svg>